<mxfile host="app.diagrams.net" modified="2024-03-18T14:27:50.797Z" agent="Mozilla/5.0 (Macintosh; Intel Mac OS X 10_15_7) AppleWebKit/537.36 (KHTML, like Gecko) Chrome/122.0.0.0 Safari/537.36" etag="Npx4BeUCmgcTm3NTfR8u" version="23.1.8" type="device">
  <diagram name="Page-1" id="qGA3pwfsb2EcGDs729DX">
    <mxGraphModel dx="794" dy="506" grid="1" gridSize="10" guides="1" tooltips="1" connect="1" arrows="1" fold="1" page="1" pageScale="1" pageWidth="850" pageHeight="1100" math="0" shadow="0">
      <root>
        <mxCell id="0" />
        <mxCell id="1" parent="0" />
        <mxCell id="slx63LIIcTpx2Iu88NdE-1" value="GALLERY CONTAINING 9 DOGS" style="rounded=0;whiteSpace=wrap;html=1;" vertex="1" parent="1">
          <mxGeometry x="30" y="180" width="770" height="190" as="geometry" />
        </mxCell>
        <mxCell id="slx63LIIcTpx2Iu88NdE-2" value="DOG-POUND" style="rounded=0;whiteSpace=wrap;html=1;" vertex="1" parent="1">
          <mxGeometry x="45" y="30" width="720" height="60" as="geometry" />
        </mxCell>
        <mxCell id="slx63LIIcTpx2Iu88NdE-3" value="DOG LOGO" style="rounded=0;whiteSpace=wrap;html=1;" vertex="1" parent="1">
          <mxGeometry x="70" y="30" width="120" height="60" as="geometry" />
        </mxCell>
        <mxCell id="slx63LIIcTpx2Iu88NdE-4" value="NAVIGATION&amp;nbsp;" style="rounded=0;whiteSpace=wrap;html=1;" vertex="1" parent="1">
          <mxGeometry x="330" width="375" height="30" as="geometry" />
        </mxCell>
        <mxCell id="slx63LIIcTpx2Iu88NdE-5" value="APPLICATION FORM&amp;nbsp;" style="rounded=0;whiteSpace=wrap;html=1;" vertex="1" parent="1">
          <mxGeometry x="45" y="420" width="600" height="210" as="geometry" />
        </mxCell>
      </root>
    </mxGraphModel>
  </diagram>
</mxfile>
